<?xml version="1.0" encoding="UTF-8" standalone="no"?>
<!-- Created with Inkscape (http://www.inkscape.org/) -->

<svg
   xmlns:dc="http://purl.org/dc/elements/1.1/"
   xmlns:cc="http://creativecommons.org/ns#"
   xmlns:rdf="http://www.w3.org/1999/02/22-rdf-syntax-ns#"
   xmlns:svg="http://www.w3.org/2000/svg"
   xmlns="http://www.w3.org/2000/svg"
   xmlns:xlink="http://www.w3.org/1999/xlink"
   xmlns:sodipodi="http://sodipodi.sourceforge.net/DTD/sodipodi-0.dtd"
   xmlns:inkscape="http://www.inkscape.org/namespaces/inkscape"
   version="1.1"
   id="svg2"
   width="1573.6935"
   height="826.56665"
   viewBox="0 0 1573.6934 826.56668"
   sodipodi:docname="Alcohol-Free logo.svg"
   inkscape:version="0.92.5 (2060ec1f9f, 2020-04-08)">
  <metadata
     id="metadata8">
    <rdf:RDF>
      <cc:Work
         rdf:about="">
        <dc:format>image/svg+xml</dc:format>
        <dc:type
           rdf:resource="http://purl.org/dc/dcmitype/StillImage" />
        <dc:title></dc:title>
      </cc:Work>
    </rdf:RDF>
  </metadata>
  <defs
     id="defs6">
    <linearGradient
       inkscape:collect="always"
       id="linearGradient1503">
      <stop
         style="stop-color:#fc5d9d;stop-opacity:1"
         offset="0"
         id="stop1499" />
      <stop
         style="stop-color:#fbcc89;stop-opacity:1"
         offset="1"
         id="stop1501" />
    </linearGradient>
    <linearGradient
       inkscape:collect="always"
       xlink:href="#linearGradient1503"
       id="linearGradient1505"
       x1="596.43506"
       y1="-85.407585"
       x2="603.63068"
       y2="716.18378"
       gradientUnits="userSpaceOnUse"
       gradientTransform="translate(-2.2775801e-6)" />
  </defs>
  <sodipodi:namedview
     pagecolor="#ffffff"
     bordercolor="#666666"
     borderopacity="1"
     objecttolerance="10"
     gridtolerance="10"
     guidetolerance="10"
     inkscape:pageopacity="0"
     inkscape:pageshadow="2"
     inkscape:window-width="1366"
     inkscape:window-height="705"
     id="namedview4"
     showgrid="false"
     inkscape:zoom="0.64846555"
     inkscape:cx="786.84674"
     inkscape:cy="413.28333"
     inkscape:window-x="-8"
     inkscape:window-y="-8"
     inkscape:window-maximized="1"
     inkscape:current-layer="svg2">
    <inkscape:grid
       type="xygrid"
       id="grid899"
       originx="-2.27758e-06"
       originy="-2.12712e-05" />
  </sodipodi:namedview>
  <path
     style="fill:url(#linearGradient1505);fill-opacity:1;stroke-width:1.33333337"
     d="m 630.73545,824.67623 c -0.42057,-1.096 0.17284,-7.246 1.31868,-13.66667 9.06234,-50.78017 18.24991,-151.17926 20.30064,-221.83931 0.45495,-15.67571 1.00054,-30.3013 1.21242,-32.5013 0.21186,-2.2 0.45229,-7.78061 0.53426,-12.40137 0.14867,-8.38032 0.1614,-8.40653 5.08338,-10.46307 3.79129,-1.58409 8.65601,-1.9492 21,-1.57608 14.96661,0.4524 16.73162,0.79618 25.80058,5.02526 7.07711,3.30021 11.68755,6.6487 16.88695,12.26466 8.85053,9.55963 12.32588,18.37007 13.68973,34.70518 l 1.02174,12.23734 4.53685,-10.56262 c 7.22189,-16.81392 15.78652,-33.4609 22.30805,-43.35996 7.73506,-11.74107 22.69425,-27.75171 33.79546,-36.17088 14.89576,-11.29696 37.44747,-20.95284 53.55736,-22.93148 l 7.53105,-0.92497 0.46895,12.34897 c 0.25792,6.79192 0.25521,21.86721 -0.007,33.50062 -0.42694,19.01292 -0.69658,21.05643 -2.66666,20.20975 -16.03694,-6.89244 -19.70426,-7.75468 -32.85772,-7.72549 -11.50218,0.0255 -14.57394,0.54034 -22.36659,3.74862 -28.01734,11.53492 -52.62288,37.95535 -61.53666,66.07552 -2.79684,8.82315 -3.26834,13.53057 -4.00653,40 -1.28317,46.01151 -4.22129,93.79398 -8.17579,132.96208 -1.05293,10.42914 -1.91444,19.81266 -1.91444,20.85229 0,1.03961 -1.05,3.15296 -2.33333,4.69633 -1.87803,2.25858 -6.62617,3.58783 -24.33333,6.81214 -12.1,2.2033 -30.12135,5.50701 -40.04743,7.34158 -20.99063,3.87955 -27.70735,4.19272 -28.80095,1.34286 z M 413.58382,812.67864 c -0.73333,-0.24555 -8.53333,-2.65131 -17.33333,-5.34615 -21.5303,-6.59322 -43.42386,-15.10237 -46.57372,-18.10133 -2.54091,-2.41915 -2.51928,-2.89752 1.69557,-37.50631 2.34812,-19.28074 4.54639,-37.19963 4.88505,-39.81977 0.33867,-2.62012 1.50326,-11.92012 2.58799,-20.66666 3.04508,-24.55362 5.46631,-42.15356 14.2022,-103.23613 0.68172,-4.76667 2.15644,-14.06667 3.27717,-20.66667 1.12074,-6.6 2.67059,-15.9 3.44412,-20.66667 0.77354,-4.76666 3.79004,-21.26666 6.70335,-36.66666 2.91329,-15.4 5.78012,-30.7 6.37071,-34 2.41914,-13.51719 5.68,-27.40092 6.6782,-28.43375 0.58494,-0.60522 13.28833,-1.05833 28.22977,-1.00689 33.8836,0.11667 74.15827,-3.10424 114.49959,-9.15688 9.9,-1.48535 21.96813,-3.29452 26.81808,-4.02037 4.84995,-0.72586 22.48519,-4.08127 39.18941,-7.45647 20.43857,-4.12976 30.65775,-5.67331 31.24713,-4.71968 0.48168,0.77937 0.44134,5.96528 -0.0896,11.52423 -0.53099,5.55894 -1.39382,19.66877 -1.9174,31.35516 -0.77059,17.19841 -1.31918,21.24798 -2.87847,21.24798 -1.05955,0 -12.52605,-4.15749 -25.48114,-9.23888 -48.02692,-18.83766 -66.28178,-23.2701 -96.22134,-23.3634 -26.48795,-0.0825 -27.3803,0.17002 -29.20903,8.2665 -0.78708,3.48468 -2.65196,11.73578 -4.14417,18.33578 -5.45138,24.11108 -11.05004,51.52231 -19.19924,94 -8.63204,44.99441 -9.29803,49.34953 -7.779,50.86856 1.8233,1.8233 36.9196,-0.76782 56.5156,-4.17249 22.51926,-3.91258 37.29357,-8.46496 53.14917,-16.37682 7.7,-3.84225 14.45,-7.18592 15,-7.43036 0.55,-0.24445 1,0.8727 1,2.48252 0,3.18107 -8.06748,48.31195 -8.78176,49.12671 -0.24019,0.27396 -4.49411,-1.12619 -9.45316,-3.11143 -14.68723,-5.87971 -34.52231,-8.42113 -74.05499,-9.48856 -27.8919,-0.75311 -35.53197,-0.59836 -36.35689,0.73639 -0.57441,0.92941 -6.631,40.62098 -13.45911,88.2035 -6.82809,47.58251 -12.78299,87.10953 -13.23309,87.83781 -0.77059,1.24684 -6.39506,1.64914 -9.32767,0.66719 z m 542.96971,-62.679 c -16.98905,-4.30257 -28.79706,-11.31832 -41.8439,-24.86158 -24.34183,-25.26804 -36.09328,-67.61675 -32.54413,-117.27932 5.27561,-73.82109 43.03468,-129.6793 99.61151,-147.35857 5.92909,-1.85273 11.97593,-2.42829 25.14019,-2.39295 15.6017,0.0419 18.2483,0.40531 26.4925,3.63764 20.3707,7.98686 40.0235,24.37764 48.5314,40.47602 6.5018,12.30261 10.0549,28.08481 9.2562,41.11474 -1.2249,19.9836 -7.5529,32.57323 -21.8451,43.46076 -10.116,7.70619 -22.4365,12.84885 -49.27,20.56568 -29.14242,8.38083 -37.98823,11.93484 -44.94345,18.05706 -10.01573,8.8162 -12.34586,19.8301 -7.66109,36.2119 7.29668,25.51514 26.48563,43.51582 48.88404,45.85693 10.1118,1.05689 26.9666,-2.95139 37.3205,-8.87529 16.8018,-9.613 27.5026,-21.05675 38.5989,-41.27884 7.5218,-13.7078 9.3278,-15.83979 11.5422,-13.62542 3.585,3.585 -10.4346,35.85332 -23.6582,54.45314 -17.1169,24.07594 -40.2762,40.21114 -70.7141,49.26687 -14.88065,4.42723 -40.62729,5.67872 -52.89747,2.57123 z m 12.78724,-139.20253 c 3.95764,-5.98041 13.95745,-14.65137 29.65189,-25.71154 16.13834,-11.37299 26.52294,-22.53879 32.87114,-35.34402 4.8824,-9.84838 5.4787,-12.15242 6.0381,-23.33333 1.3256,-26.49473 -8.843,-49.03172 -25.6977,-56.95434 -8.0566,-3.78704 -21.16739,-3.79494 -29.20338,-0.0176 -12.60887,5.92686 -24.36271,22.81265 -29.21889,41.97645 -6.95089,27.43 -6.17447,75.86274 1.84122,114.85438 0.87459,4.25433 1.9155,8.27667 2.31314,8.93852 0.39764,0.66185 2.33489,-3.36339 4.30501,-8.945 1.97012,-5.5816 5.16488,-12.5402 7.09947,-15.46354 z M 1245.5838,724.0415 c -13.604,-1.88999 -28.8142,-6.65154 -41.1582,-12.88459 -54.5157,-27.52752 -86.712,-88.48184 -86.3494,-163.47738 0.1802,-37.2598 8.0517,-62.15115 25.0207,-79.12015 9.3555,-9.3555 18.4376,-12.91818 33.1536,-13.00532 22.8022,-0.13501 39.8718,8.66771 64,33.00455 16.7928,16.93796 26.9711,30.14665 38.0015,49.31585 21.8292,37.93572 25.98,67.64813 10.55,75.51991 -7.325,3.73692 -17.7576,3.31376 -36.5515,-1.48258 -8.8,-2.24581 -20.5,-5.23498 -26,-6.6426 -13.1048,-3.3539 -22.1085,-3.33704 -27.6667,0.0519 -4.2238,2.57529 -4.3333,2.87775 -4.3333,11.96457 0,17.7732 11.1704,39.24815 30.6182,58.86295 9.1852,9.26409 13.5691,12.54788 22.7151,17.01501 13.2656,6.47917 23.8864,8.74924 36.215,7.74048 11.391,-0.93205 17.9645,-4.34981 26.0102,-13.52349 7.574,-8.6359 9.7748,-9.23643 9.7748,-2.66726 0,11.9241 -15.8532,31.21308 -30.0098,36.51379 -9.0383,3.38423 -30.1613,4.73565 -43.9902,2.81444 z m -50.6943,-136.01037 c 2.154,-2.24826 6.6645,-4.54155 11.7608,-5.97962 21.9909,-6.20534 25.9036,-7.5105 29.8798,-9.96718 15.2014,-9.39214 13.5199,-40.03964 -3.9971,-72.85215 -5.7516,-10.77374 -18.0103,-24.06188 -27.1264,-29.40422 -8.9752,-5.25987 -17.5242,-5.19568 -23.2198,0.17433 -5.7169,5.39005 -8.822,13.03635 -10.6713,26.27785 -1.6031,11.47839 -0.9251,34.43824 1.5667,53.05548 1.8082,13.51011 8.9519,46.07189 11.5105,52.46653 l 2.0699,5.17302 2.3665,-7.64858 c 1.3016,-4.2067 3.9388,-9.28966 5.8604,-11.29546 z m -943.97235,31.87824 c -39.6862,-13.37523 -94.77423,-37.46404 -115.56296,-50.5332 -5.89708,-3.70728 -6.26779,-4.29336 -6.94416,-10.97846 -1.6832,-16.63641 -2.01708,-34.39542 -0.64664,-34.39542 0.77075,0 13.21683,5.9484 27.65795,13.21868 41.47486,20.88018 68.4178,31.77412 105.85437,42.80048 8.12983,2.3945 10.48383,3.65302 10.94075,5.84922 1.44168,6.9294 4.73328,30.02291 5.03445,35.3213 0.18311,3.22098 -0.26709,6.07001 -1.00042,6.33115 -0.73334,0.26116 -12.13334,-3.16502 -25.33334,-7.61375 z m 1288.19965,-118.35059 -33.1307,-23.77685 -11.2872,-25.22315 c -6.208,-13.87274 -14.8703,-33.92316 -19.2496,-44.55649 -4.3792,-10.63333 -8.5083,-20.53333 -9.1757,-22 -7.2983,-16.03764 -30.186,-78.27934 -46.5784,-126.66666 -6.4592,-19.06667 -15.4267,-45.52808 -19.9278,-58.80313 -4.5009,-13.27507 -8.1836,-24.82507 -8.1836,-25.66667 0,-2.82035 4.2619,-1.57349 16.4179,4.80313 24.4787,12.84082 36.0503,29.18143 49.4511,69.8317 24.0669,73.00429 47.7341,133.0365 77.3137,196.10664 2.6495,5.64943 4.8173,10.5511 4.8173,10.89259 0,0.34149 7.4286,15.05045 16.508,32.68659 17.8663,34.70389 18.5506,36.14914 17.1154,36.14914 -0.5279,0 -15.8686,-10.69959 -34.0904,-23.77684 z M 1428.9172,447.0857 c -10.7295,-1.7814 -26.7056,-6.56248 -39.2504,-11.74621 -27.2422,-11.25692 -47.1755,-24.65716 -69.4242,-46.67053 -23.2138,-22.96837 -36.6532,-44.30311 -45.3549,-72 -10.7176,-34.11344 -7.9833,-59.62637 7.8875,-73.59644 7.377,-6.49358 13.4616,-8.40356 26.7709,-8.40356 39.5913,0 81.1459,31.9548 116.1703,89.33333 8.6396,14.15383 25.3234,49.37698 29.6909,62.68379 11.8755,36.18196 8.0013,55.60665 -11.9432,59.884 -6.7596,1.44966 -8.5409,1.51281 -14.5469,0.51562 z m -10.363,-15.44304 c 2.9312,-3.78372 3.1031,-16.03893 0.4006,-28.5532 -4.7818,-22.14165 -19.1224,-60.08982 -34.6739,-91.75383 -21.6936,-44.16999 -43.3941,-68.81435 -60.826,-69.07732 -8.3345,-0.12573 -11.2997,2.569 -13.2699,12.05945 -4.9957,24.06436 19.1536,94.69125 46.3423,135.5317 23.0523,34.62727 52.3076,54.3393 62.0269,41.7932 z m -185.637,-39.67184 c -11.8871,-2.77442 -27.2274,-5.52412 -40.4784,-7.25557 -7.963,-1.04051 -14.8052,-2.21872 -15.2047,-2.61824 -1.2054,-1.20542 -0.3234,-49.42296 1.7335,-94.76138 3.2274,-71.14099 2.7968,-77.8388 -5.884,-91.52417 -3.0877,-4.86767 -5.844,-7.1346 -12.8964,-10.60647 -15.7123,-7.73515 -33.6881,-5.91189 -51.8587,5.25996 -5.8938,3.62365 -8.1773,5.89479 -8.9192,8.87068 -0.849,3.40569 -5.0059,39.65599 -10.5498,92 -7.6287,72.02813 -9.3776,86.5163 -10.6256,88.01998 -0.8309,1.00115 -9.2935,1.89884 -23.6388,2.5075 -12.2895,0.52144 -27.7446,1.73699 -34.3446,2.70125 -13.4624,1.96685 -16.0165,1.18724 -14.8712,-4.53928 1.8408,-9.20425 10.6018,-61.36271 14.7911,-88.05887 2.5862,-16.48016 5.8646,-36.56391 7.2854,-44.63058 1.4207,-8.06667 3.8966,-23.06667 5.502,-33.33333 1.6053,-10.26667 7.5951,-46.86667 13.3107,-81.33333 5.7155,-34.46667 11.4237,-69.566669 12.6848,-78.000003 2.9746,-19.89279 4.2457,-24.900357 6.5445,-25.782505 2.6385,-1.012454 13.3256,4.606326 22.4599,11.808335 14.1568,11.162009 25.0817,29.753387 25.4489,43.307503 0.09,3.3 -1.1895,15.3 -2.8422,26.66667 -6.5096,44.77337 -10.1557,73.27647 -9.4594,73.94981 0.2633,0.25472 5.2788,-2.37474 11.1455,-5.84323 23.2418,-13.74107 40.8238,-16.44109 65.4299,-10.04789 26.9838,7.01097 45.2336,20.79181 54.7175,41.31837 7.1202,15.41084 8.1863,25.21236 9.0591,83.2896 0.4243,28.23333 1.1693,62.28333 1.6555,75.66666 l 0.884,24.33333 -3.2063,-0.1378 c -1.7635,-0.0758 -5.3064,-0.62794 -7.873,-1.227 z m -708.00004,-4.78613 c -21.00391,-2.24283 -39.70039,-7.02668 -52.66667,-13.47578 -10.09929,-5.02314 -25.09467,-16.95327 -31.10689,-24.74824 -13.31877,-17.26807 -18.13123,-32.94362 -17.26842,-56.2481 0.50356,-13.6009 1.24923,-17.97216 4.89755,-28.71028 22.06923,-64.95649 97.54857,-115.76023 184.29994,-124.04886 38.55648,-3.68386 73.55704,5.91261 93.05573,25.51411 6.7466,6.78216 7.64424,8.54313 5.76835,11.31613 -2.05998,3.04511 -46.91562,32.55196 -49.48474,32.55196 -3.78545,0 -4.50981,-2.76904 -9.47076,-36.20417 -1.8573,-12.51767 -5.6554,-19.45702 -12.29989,-22.47264 -6.9542,-3.1562 -10.07307,-3.24215 -22.63703,-0.62384 -44.76963,9.32992 -87.94321,59.96698 -105.12717,123.30065 -2.45206,9.03736 -3.08519,14.84481 -3.12524,28.66666 -0.0621,21.45462 2.31766,28.71887 13.29188,40.57232 11.78146,12.7254 24.64401,17.3983 47.87336,17.39215 31.10934,-0.008 58.44584,-10.8942 89.20785,-35.52445 5.79766,-4.642 10.97419,-8.44002 11.5034,-8.44002 0.52923,0 1.73274,0.92842 2.67448,2.06314 1.45186,1.74937 0.8177,2.98548 -4.17008,8.12824 -21.86872,22.54832 -56.0641,43.86476 -85.03473,53.00825 -17.7814,5.61204 -46.59264,9.43374 -60.18092,7.98277 z m -252.00001,-1.41173 c -13.81235,-0.60911 -52.39213,-4.67325 -55.50956,-5.8476 -3.60948,-1.35971 -24.20597,-38.22885 -34.29033,-61.38207 -4.02264,-9.23578 -11.0463,-27.83578 -15.60812,-41.33333 -4.56184,-13.49755 -8.39979,-24.67956 -8.5288,-24.8489 -0.12907,-0.16935 -8.29599,-2.64746 -18.14887,-5.5069 -24.54284,-7.12269 -37.22631,-11.64706 -60.391831,-21.54261 -22.428733,-9.58081 -20.501925,-9.83692 -25.259852,3.35741 -3.728612,10.33992 -4.328639,22.63271 -1.629972,33.39336 4.898015,19.53031 14.940544,42.86863 27.261864,63.35515 5.754107,9.5673 8.254974,15.91816 6.268294,15.91816 -2.95152,0 -86.41918755,-37.7833 -87.03966356,-39.40023 -1.18151474,-3.07899 23.85942656,-49.52049 42.38244656,-78.60348 24.62403,-38.66216 46.27675,-68.09278 83.778884,-113.87322 12.8602,-15.698974 27.58218,-33.73988 32.71551,-40.090902 5.13333,-6.35102 11.26215,-13.906401 13.61959,-16.789737 2.35742,-2.883335 10.10853,-12.742426 17.22468,-21.909093 7.11613,-9.166666 15.6102,-19.816666 18.8757,-23.6666658 6.31502,-7.44533439 10.43391,-9.2380944 9.19007,-3.9999999 -0.97237,4.0948919 -4.42493,27.0689687 -6.248,41.5755787 -9.79913,77.974019 1.29633,168.000099 29.59055,240.091079 11.04672,28.146 27.93257,62.54304 40.92389,83.36332 5.2196,8.36509 9.49019,15.98042 9.49019,16.92297 0,1.13707 -1.68243,1.62727 -5,1.4568 -2.75,-0.14129 -8.9,-0.42889 -13.66667,-0.63909 z m -117.72551,-150.104 c -0.40644,-3.11666 -1.6587,-9.86666 -2.78281,-15 -6.19141,-28.27376 -8.71208,-68.8467 -6.20748,-99.91619 0.92635,-11.49122 1.38536,-21.192017 1.02004,-21.55735 -2.06905,-2.06904 -79.637578,102.18833 -79.637578,107.03832 0,2.11233 9.099307,6.52013 34.000008,16.46996 16.22648,6.48378 50.56004,18.48481 53.1734,18.58634 0.64537,0.0251 0.84086,-2.50441 0.43442,-5.62108 z M 771.2222,385.37248 c -49.23353,-8.95585 -74.90496,-43.26141 -69.18651,-92.45613 3.9597,-34.06435 20.56682,-67.02927 48.51524,-96.30208 22.5303,-23.59793 42.11841,-38.03397 71.44573,-52.65407 30.18556,-15.04793 56.47801,-21.74535 85.58717,-21.80146 20.25587,-0.0391 31.96179,2.46308 47.89531,10.23755 11.36171,5.54373 28.56929,22.38157 34.34397,33.60601 25.50879,49.58222 14.67429,105.06751 -29.25726,149.83149 -18.45814,18.80788 -41.41067,34.89585 -67.01918,46.97534 -19.72715,9.30526 -34.03431,14.13247 -59.29617,20.0064 -12.77058,2.96944 -52.00966,4.56129 -63.0283,2.55695 z m 109.04343,-51.70352 c 9.16037,-24.40272 26.53459,-48.96123 58.70613,-82.98132 23.75658,-25.1216 31.82941,-38.82768 31.82062,-54.02517 -0.012,-19.63504 -21.80483,-32.92748 -47.20855,-28.79381 -18.432,2.99924 -36.48177,15.61256 -52.76637,36.87356 -4.1818,5.4597 -8.02428,9.92674 -8.53883,9.92674 -0.51456,0 -1.72853,-3.30549 -2.69773,-7.34554 -1.9356,-8.06848 -7.79475,-15.99716 -15.20683,-20.57808 -11.94032,-7.37952 -31.21329,-6.28766 -50.12357,2.83964 -24.78934,11.96488 -41.33334,36.737 -41.33334,61.89033 0,8.82815 4.43215,23.3922 9.59533,31.53032 10.39495,16.38432 35.13969,31.93436 70.61231,44.37402 12.67886,4.44628 39.77104,12.28527 43.27788,12.52226 0.81704,0.0552 2.55538,-2.74962 3.86295,-6.23295 z m -559.57102,45.35895 c -4.15575,-0.26698 -8.18138,-1.23908 -8.94587,-2.16023 -4.07681,-4.91225 -7.53565,-99.85052 -4.91349,-134.86538 4.61186,-61.58424 15.7715,-126.85764 32.48386,-189.999999 6.93307,-26.194426 12.4889,-44.5884081 14.04604,-46.5030134 1.92143,-2.3625173 18.9103,-1.2794066 27.552,1.7565533 14.9853,5.2645581 26.44568,18.5776991 30.0889,34.9532471 2.69813,12.127567 2.26324,18.524217 -3.2617,47.974238 -7.1195,37.949644 -10.66498,64.384134 -14.28224,106.485634 -2.98714,34.76771 -2.94488,112.12159 0.0765,140 3.91262,36.10187 4.01504,38.80377 1.50742,39.76604 -4.27325,1.6398 -59.3109,3.55917 -74.35144,2.59291 z"
     id="path1463"
     inkscape:connector-curvature="0"
     sodipodi:nodetypes="ccscscsccccsssscscccssscscsscccccscsscccscsscssccsscccsssscsccscsccssscccccssssssccssscscsscscsscccscssccscccsscscscccccscccccccccscsssccccscccccccscccscsccscscscsccsccsscsccccccccscssccccccccccccscsscccssssssscsccssccccsscsscssccsssssscsssccccssssccscscsscssssscsssssscscscscsssssccccsscsssssccc" />
</svg>
